<svg width="19" height="20" viewBox="0 0 19 20" fill="none" xmlns="http://www.w3.org/2000/svg">
<path d="M1.414 10.778C0.5 11 0 12.192 0 12.192C0 12.192 3.398 12.626 4.949 14.313C6.5 16 7.071 19.263 7.071 19.263C7.071 19.263 8.47 19.698 8.485 17.849C8.5 16 7.778 14.313 7.778 14.313L11.091 11L14.701 18.704C14.701 18.704 16.08 19.23 16.04 17.365C16 15.5 14.85 7.242 14.85 7.242L17.678 4.413C17.869 4.22851 18.0214 4.00782 18.1262 3.76381C18.231 3.5198 18.2862 3.25736 18.2885 2.99181C18.2908 2.72625 18.2402 2.46289 18.1396 2.21709C18.0391 1.9713 17.8906 1.748 17.7028 1.56021C17.515 1.37243 17.2917 1.22392 17.0459 1.12336C16.8001 1.0228 16.5368 0.972194 16.2712 0.974502C16.0056 0.976809 15.7432 1.03198 15.4992 1.1368C15.2552 1.24162 15.0345 1.39398 14.85 1.585L11.947 4.488C11.947 4.488 4.148 3.09401 1.824 3.297C-0.5 3.5 0.559 4.563 0.559 4.563L8.203 8.233L4.95 11.486C4.95 11.486 2.328 10.556 1.414 10.778Z" fill="#2F80ED"/>
</svg>
